<?xml version="1.0" encoding="UTF-8" standalone="no"?>
<svg
   width="171.28215"
   height="31.519878"
   viewBox="0 0 171.28215 31.519878"
   fill="none"
   version="1.1"
   id="svg22"
   sodipodi:docname="logo-dark.svg"
   inkscape:version="1.1.2 (0a00cf5339, 2022-02-04)"
   xmlns:inkscape="http://www.inkscape.org/namespaces/inkscape"
   xmlns:sodipodi="http://sodipodi.sourceforge.net/DTD/sodipodi-0.dtd"
   xmlns="http://www.w3.org/2000/svg"
   xmlns:svg="http://www.w3.org/2000/svg">
  <defs
     id="defs26" />
  <sodipodi:namedview
     id="namedview24"
     pagecolor="#ffffff"
     bordercolor="#666666"
     borderopacity="1.0"
     inkscape:pageshadow="2"
     inkscape:pageopacity="0.0"
     inkscape:pagecheckerboard="0"
     showgrid="false"
     fit-margin-top="0"
     fit-margin-left="0"
     fit-margin-right="0"
     fit-margin-bottom="0"
     inkscape:zoom="3.3614131"
     inkscape:cx="103.08165"
     inkscape:cy="2.8261924"
     inkscape:window-width="1388"
     inkscape:window-height="836"
     inkscape:window-x="52"
     inkscape:window-y="27"
     inkscape:window-maximized="1"
     inkscape:current-layer="svg22" />
  <g
     id="g139"
     transform="matrix(0.61852995,0,0,0.61852995,42.07981,-2.899551)">
    <path
       d="m -62.369818,10.349958 v 39.635044 h 39.635042 V 10.349958 Z m 33.972893,33.972895 H -56.707668 V 16.012107 h 28.310743 z"
       fill="#90caf9"
       id="path2-5"
       style="stroke-width:0.0663535" />
    <path
       d="m -68.031968,4.6878102 h 16.986445 V 21.674255 h -16.986445 z"
       fill="#d81b60"
       id="path4-3"
       style="fill:#ff2a2a;stroke-width:0.0663535" />
    <path
       d="m -34.059073,4.6878102 h 16.986445 V 21.674255 H -34.059073 Z M -68.031968,38.660705 h 16.986445 V 55.64715 h -16.986445 z m 33.972895,0 h 16.986445 V 55.64715 h -16.986445 z"
       fill="#2196f3"
       id="path6-5"
       style="fill:#2196f3;fill-opacity:1;stroke-width:0.0663535" />
    <path
       d="m -45.38337,27.336408 h 16.986445 V 44.322853 H -45.38337 Z"
       fill="#d81b60"
       id="path4-3-8"
       style="fill:#673ab7;fill-opacity:1;stroke-width:0.0663535" />
    <path
       d="m -56.707667,16.012111 h 20.315551 v 19.46313 h -20.315551 z"
       fill="#d81b60"
       id="path32266"
       style="fill:#2196f3;fill-opacity:1;stroke-width:0.0776751" />
  </g>
  <g
     aria-label="AMAL YAUMI"
     id="text1716"
     style="font-size:22.0413px;line-height:1.25;fill:#1a1a1a;stroke-width:0.551034">
    <path
       d="m 49.63526,20.169798 h -5.660998 l -1.076235,3.228706 H 39.464836 L 45.298032,7.7285177 h 2.991934 l 5.865483,15.6699863 h -3.433191 z m -4.789247,-2.615252 h 3.917496 l -1.96951,-5.865482 z"
       style="font-weight:bold;font-family:Roboto;-inkscape-font-specification:'Roboto Bold';fill:#1a1a1a"
       id="path91" />
    <path
       d="m 59.837972,7.7285177 4.02512,11.3650453 4.003595,-11.3650453 h 4.240368 V 23.398504 h -3.239469 v -4.283416 l 0.322871,-7.393737 -4.229605,11.677153 h -2.217045 l -4.218842,-11.666391 0.32287,7.382975 v 4.283416 H 55.619129 V 7.7285177 Z"
       style="font-weight:bold;font-family:Roboto;-inkscape-font-specification:'Roboto Bold';fill:#1a1a1a"
       id="path93" />
    <path
       d="m 83.967169,20.169798 h -5.660998 l -1.076235,3.228706 H 73.796745 L 79.629941,7.7285177 h 2.991934 l 5.865483,15.6699863 h -3.433191 z m -4.789247,-2.615252 h 3.917497 l -1.969511,-5.865482 z"
       style="font-weight:bold;font-family:Roboto;-inkscape-font-specification:'Roboto Bold';fill:#1a1a1a"
       id="path95" />
    <path
       d="m 93.179741,20.804777 h 6.855619 v 2.593727 H 89.951035 V 7.7285177 h 3.228706 z"
       style="font-weight:bold;font-family:Roboto;-inkscape-font-specification:'Roboto Bold';fill:#1a1a1a"
       id="path97" />
    <path
       d="m 112.77799,14.788622 3.261,-7.0601043 h 3.53005 l -5.14441,9.9874643 v 5.682522 h -3.28252 v -5.682522 l -5.1444,-9.9874643 h 3.54081 z"
       style="font-weight:bold;font-family:Roboto;-inkscape-font-specification:'Roboto Bold';fill:#1a1a1a"
       id="path99" />
    <path
       d="m 128.23273,20.169798 h -5.661 l -1.07624,3.228706 h -3.43319 l 5.8332,-15.6699863 h 2.99193 l 5.86548,15.6699863 h -3.43319 z m -4.78925,-2.615252 h 3.9175 l -1.96952,-5.865482 z"
       style="font-weight:bold;font-family:Roboto;-inkscape-font-specification:'Roboto Bold';fill:#1a1a1a"
       id="path101" />
    <path
       d="M 145.89375,7.7285177 V 18.049615 q 0,2.572202 -1.61435,4.068169 -1.60359,1.495967 -4.39104,1.495967 -2.7444,0 -4.35875,-1.452917 -1.61436,-1.452918 -1.64664,-3.992834 V 7.7285177 h 3.2287 V 18.071139 q 0,1.539017 0.73184,2.249332 0.7426,0.699553 2.04485,0.699553 2.72287,0 2.76592,-2.862786 V 7.7285177 Z"
       style="font-weight:bold;font-family:Roboto;-inkscape-font-specification:'Roboto Bold';fill:#1a1a1a"
       id="path103" />
    <path
       d="m 152.76013,7.7285177 4.02512,11.3650453 4.0036,-11.3650453 h 4.24037 V 23.398504 h -3.23947 v -4.283416 l 0.32287,-7.393737 -4.22961,11.677153 h -2.21704 l -4.21884,-11.666391 0.32287,7.382975 v 4.283416 h -3.22871 V 7.7285177 Z"
       style="font-weight:bold;font-family:Roboto;-inkscape-font-specification:'Roboto Bold';fill:#1a1a1a"
       id="path105" />
    <path
       d="m 171.28214,23.398504 h -3.2287 V 7.7285177 h 3.2287 z"
       style="font-weight:bold;font-family:Roboto;-inkscape-font-specification:'Roboto Bold';fill:#1a1a1a"
       id="path107" />
  </g>
</svg>
